# AST/ASF file generated using VICON BodyLanguage
# -----------------------------------------------
:version 1.10
:name VICON
:units
  mass 1.0
  length 0.45
  angle deg
:documentation
   .ast/.asf automatically generated from VICON data using
   VICON BodyBuilder and BodyLanguage model FoxedUp or BRILLIANT.MOD
:root
   order TX TY TZ RX RY RZ
   axis XYZ
   position 0 0 0  
   orientation 0 0 0 
:bonedata
  begin
     id 1 
     name lhipjoint
     direction 0.440178 -0.822639 0.359871 
     length 2.53113 
     axis 0 0 0  XYZ
  end
  begin
     id 2 
     name lfemur
     direction 0.34202 -0.939693 0  
     length 7.88132  
     axis 0 0 20  XYZ
    dof rx ry rz
    limits (-160.0 20.0)
           (-70.0 70.0)
           (-60.0 70.0)
  end
  begin
     id 3 
     name ltibia
     direction 0.34202 -0.939693 0   
     length 8.43783   
     axis 0 0 20   XYZ
    dof rx
    limits (-10.0 170.0)
  end
  begin
     id 4 
     name lfoot
     direction 0.0886351 -0.243523 0.965837   
     length 2.63414   
     axis -90 7.62852e-016 20   XYZ
    dof rx rz
    limits (-45.0 90.0)
           (-70.0 20.0)
  end
  begin
     id 5 
     name ltoes
     direction 1.53703e-011 -4.21717e-011 1   
     length 1.31427   
     axis -90 7.62852e-016 20   XYZ
    dof rx
    limits (-90.0 20.0)
  end
  begin
     id 6 
     name rhipjoint
     direction -0.399779 -0.839773 0.367367   
     length 2.47948  
     axis 0 0 0  XYZ 
  end
  begin
     id 7 
     name rfemur
     direction -0.34202 -0.939693 0   
     length 7.74806   
     axis 0 0 -20   XYZ
    dof rx ry rz
    limits (-160.0 20.0)
           (-70.0 70.0)
           (-70.0 60.0)
  end
  begin
     id 8 
     name rtibia
     direction -0.34202 -0.939693 0   
     length 8.74432   
     axis 0 0 -20   XYZ
    dof rx
    limits (-10.0 170.0)
 end
 begin
     id 9 
     name rfoot
     direction -0.108514 -0.298139 0.948334   
     length 2.66102  
     axis -90 -7.62852e-016 -20   XYZ
    dof rx rz
    limits (-45.0 90.0)
           (-20.0 70.0)
  end
  begin
     id 10 
     name rtoes
     direction -1.53392e-011 -4.22077e-011 1   
     length 1.31983   
     axis -90 -7.62852e-016 -20   XYZ
    dof rx
    limits (-90.0 20.0)
  end
  begin
     id 11 
     name lowerback
     direction 0.0113257 0.999866 0.0118602   
     length 2.58694   
     axis 0 0 0   XYZ
    dof rx ry rz
    limits (-20.0 45.0)
           (-30.0 30.0)
           (-30.0 30.0)
  end
  begin
     id 12 
     name upperback
     direction -0.0164747 0.995193 -0.0965375   
     length 2.52368   
     axis 0 0 0   XYZ
    dof rx ry rz
    limits (-20.0 45.0)
           (-30.0 30.0)
           (-30.0 30.0)
  end
  begin
     id 13 
     name thorax
     direction -0.0194301 0.99433 -0.104552   
     length 2.56099   
     axis 0 0 0   XYZ
    dof rx ry rz
    limits (-20.0 45.0)
           (-30.0 30.0)
           (-30.0 30.0)
  end
  begin
     id 14 
     name lowerneck
     direction 0.0148543 0.995587 -0.092657   
     length 1.71582   
     axis 0 0 0   XYZ
    dof rx ry rz
    limits (-20.0 45.0)
           (-30.0 30.0)
           (-30.0 30.0)
  end
  begin
     id 15 
     name upperneck
     direction -0.0135467 0.993656 -0.111639   
     length 1.68937   
     axis 0 0 0   XYZ
    dof rx ry rz
    limits (-20.0 45.0)
           (-30.0 30.0)
           (-30.0 30.0)
  end
  begin
     id 16
     name head
     direction -0.00615349 0.999547 -0.029448  
     length 1.7462  
     axis 0 0 0   XYZ
    dof rx ry rz
    limits (-20.0 45.0)
           (-30.0 30.0)
           (-30.0 30.0)
  end
  begin
     id 17 
     name lclavicle
     direction 0.988267 0.149885 0.0293713  
     length 4.47222  
     axis 0 0 0   XYZ
    dof ry rz
    limits (-20.0 10.0)
           (0.0 20.0)
  end
  begin
     id 18 
     name lhumerus
     direction 1 -4.48986e-011 -1.14833e-027   
     length 5.37148   
     axis 180 -30 -90   XYZ
    dof rx ry rz
    limits (-60.0 90.0)
           (-90.0 90.0)
           (-90.0 90.0)
  end
  begin
     id 19
     name lradius
     direction 0.999998 0.00170963 -0.000987055   
     length 3.94212   
     axis 180 -30 -90   XYZ
    dof rx
    limits (-10.0 170.0)
  end
  begin
     id 20
     name lwrist
     direction 0.999998 7.53149e-005 -0.00194706   
     length 1.97106   
     axis 4.65056e-015 90 90   XYZ
    dof ry
    limits (-180.0 0.0)
 end
  begin
     id 21 
     name lhand
     direction 1 -4.48973e-011 -1.31746e-026   
     length 1.17917   
     axis 8.4065e-015 90 90   XYZ
    dof rx rz
    limits (-90.0 90.0)
           (-45.0 45.0)
  end
  begin
     id 22 
     name lfingers
     direction 1 -4.49107e-011 -2.63492e-026   
     length 0.950679   
     axis 1.6813e-014 90 90   XYZ
    dof rx
    limits (0.0 90.0)
  end
  begin
     id 23
     name lthumb
     direction 0.707107 -6.35048e-011 0.707107   
     length 1.36499   
     axis -90 45 2.85299e-015   XYZ
    dof rx rz
    limits (-45.0 45.0)
           (-45.0 45.0)
  end
  begin
     id 24 
     name rclavicle
     direction -0.996699 0.0642895 -0.0495725   
     length 4.62611  
     axis 0 0 0   XYZ 
    dof ry rz
    limits (-10.0 20.0)
           (-20.0 0.0)
  end
  begin
     id 25 
     name rhumerus
     direction -1 -4.48919e-011 -2.41059e-027  
     length 5.4981   
     axis 180 30 90   XYZ
    dof rx ry rz
    limits (-90.0 60.0)
           (-90.0 90.0)
           (-90.0 90.0)
  end
  begin
     id 26 
     name rradius
     direction -0.999999 0.00118101 -0.000681858   
     length 3.48381   
     axis 180 30 90   XYZ
    dof rx
    limits (-10.0 170.0)
  end
  begin
     id 27 
     name rwrist
     direction -0.999999 0.000321823 -0.00132288   
     length 1.7419   
     axis 4.65056e-015 -90 -90   XYZ
    dof ry
    limits (-180.0 0.0)
  end
  begin
     id 28
     name rhand
     direction -1 -4.49022e-011 -1.31746e-026   
     length 1.34932   
     axis 8.4065e-015 -90 -90   XYZ
    dof rx rz
    limits (-90.0 90.0)
           (-45.0 45.0)
  end
  begin
     id 29
     name rfingers
     direction -1 -4.49178e-011 -2.63492e-026   
     length 1.08785   
     axis 1.6813e-014 -90 -90   XYZ
    dof rx
    limits (0.0 90.0)
  end
  begin
     id 30
     name rthumb
     direction -0.707107 -6.34713e-011 0.707107   
     length 1.56195   
     axis -90 -45 -2.85299e-015   XYZ
    dof rx rz
    limits (-45.0 45.0)
           (-45.0 45.0)
  end
:hierarchy
  begin
    root lhipjoint rhipjoint lowerback
    lhipjoint lfemur
    lfemur ltibia
    ltibia lfoot
    lfoot ltoes
    rhipjoint rfemur
    rfemur rtibia
    rtibia rfoot
    rfoot rtoes
    lowerback upperback
    upperback thorax
    thorax lowerneck lclavicle rclavicle
    lowerneck upperneck
    upperneck head
    lclavicle lhumerus
    lhumerus lradius
    lradius lwrist
    lwrist lhand lthumb
    lhand lfingers
    rclavicle rhumerus
    rhumerus rradius
    rradius rwrist
    rwrist rhand rthumb
    rhand rfingers
  end

#!OML:ASF X:\für Bonn\!DataBase\2005_08_10_Bjorn_Final\c3d\bjorn.ASF
:FULLY-SPECIFIED
:DEGREES
1
root 1.32222 19.0988 1.8006 -179.263 -20.2292 -176.618
lowerback -9.32784 2.09626 -2.21148
upperback 6.70597 3.20585 -2.80532
thorax 12.6112 1.36669 -1.21035
lowerneck -3.58459 -6.08199 -1.75163
upperneck 23.956 -11.8164 6.80809
head 8.56053 -5.78463 1.46018
rclavicle 3.57812e-015 4.77083e-014
rhumerus -31.3902 -22.7536 -82.9257
rradius 19.3171
rwrist 34.8079
rhand -2.01426 6.62311
rfingers 7.12502
rthumb 23.6597 -21.9409
lclavicle 3.57812e-015 4.77083e-014
lhumerus -11.2293 18.3676 83.4255
lradius 51.456
lwrist -1.35719
lhand -36.3071 -25.55
lfingers 7.12502
lthumb -9.40612 4.22014
rfemur -7.07583 -15.6496 21.8003
rtibia 30.7371
rfoot -23.0748 3.48487
rtoes -19.3025
lfemur -12.1565 0.190266 -15.2066
ltibia 34.8978
lfoot -17.6011 -1.09118
ltoes -9.30437
2
root 1.31266 19.1074 1.81711 -179.17 -20.6904 -176.464
lowerback -9.12728 2.12989 -2.25565
upperback 6.82563 3.24589 -2.87097
thorax 12.6285 1.37927 -1.25699
lowerneck -3.51446 -6.28396 -1.84909
upperneck 23.7583 -12.1066 7.06572
head 8.51843 -5.90429 1.53999
rclavicle -3.22031e-014 3.02153e-014
rhumerus -32.1827 -25.6309 -81.4213
rradius 17.6572
rwrist 37.7537
rhand -2.16533 6.35284
rfingers 7.12502
rthumb 23.5148 -22.2299
lclavicle -3.22031e-014 3.02153e-014
lhumerus -10.3029 17.146 83.8782
lradius 51.7761
lwrist -1.76864
lhand -35.5504 -25.1877
lfingers 7.12502
lthumb -8.67596 4.61397
rfemur -7.36827 -16.1473 21.8558
rtibia 30.8901
rfoot -22.851 3.72154
rtoes -20.3867
lfemur -12.257 -0.124325 -15.0858
ltibia 34.544
lfoot -17.4827 -1.33327
ltoes -8.10422
3
root 1.30323 19.1177 1.83422 -179.066 -21.1161 -176.308
lowerback -8.93206 2.15333 -2.29061
upperback 6.94388 3.26899 -2.90767
thorax 12.6457 1.38362 -1.28028
lowerneck -3.47509 -6.4607 -1.99901
upperneck 23.5474 -12.3574 7.35552
head 8.48156 -6.00571 1.64112
rclavicle 1.23246e-014 1.74931e-014
rhumerus -33.2165 -28.9549 -79.4514
rradius 16.1457
rwrist 41.3374
rhand -2.07008 6.18115
rfingers 7.12502
rthumb 23.6062 -22.3898
lclavicle 1.23246e-014 1.74931e-014
lhumerus -9.45236 15.8811 84.2199
lradius 52.1149
lwrist -2.41521
lhand -34.8277 -24.7709
lfingers 7.12502
lthumb -7.97845 5.05849
rfemur -7.67427 -16.6113 21.914
rtibia 31.0467
rfoot -22.6484 3.97801
rtoes -21.7318
lfemur -12.3607 -0.267772 -14.9545
ltibia 34.1677
lfoot -17.3204 -1.66937
ltoes -7.30776
4
root 1.29351 19.1268 1.8525 -178.953 -21.522 -176.156
lowerback -8.72628 2.17231 -2.29966
upperback 7.04616 3.28136 -2.93136
thorax 12.6382 1.38551 -1.30609
lowerneck -3.4475 -6.62679 -2.19064
upperneck 23.3328 -12.5938 7.67254
head 8.45031 -6.10143 1.7583
rclavicle -1.78906e-014 -3.18055e-015
rhumerus -34.5251 -32.1916 -77.2341
rradius 14.9086
rwrist 44.9366
rhand -1.77906 6.00796
rfingers 7.12502
rthumb 23.8853 -22.5267
lclavicle -1.78906e-014 -3.18055e-015
lhumerus -8.75388 14.4974 84.4257
lradius 52.5132
lwrist -3.15064
lhand -34.178 -24.405
lfingers 7.12502
lthumb -7.35135 5.44726
rfemur -7.98803 -17.12 21.9657
rtibia 31.1801
rfoot -22.3823 4.3289
rtoes -22.7676
lfemur -12.4682 -0.355333 -14.8214
ltibia 33.7808
lfoot -17.192 -2.06828
ltoes -6.40627
5
root 1.28458 19.1378 1.87089 -178.816 -21.8828 -176.037
lowerback -8.51153 2.2112 -2.28742
upperback 7.12225 3.32002 -2.99149
thorax 12.5992 1.40424 -1.37885
lowerneck -3.41598 -6.78217 -2.31203
upperneck 23.1239 -12.8332 8.00844
head 8.41916 -6.19391 1.86953
rclavicle 6.48038e-014 -4.13472e-014
rhumerus -36.0402 -35.0746 -75.0086
rradius 13.9543
rwrist 48.1956
rhand -1.33846 5.85735
rfingers 7.12502
rthumb 24.3078 -22.6214
lclavicle 6.48038e-014 -4.13472e-014
lhumerus -8.19007 12.8633 84.4049
lradius 52.9567
lwrist -3.77004
lhand -33.6117 -24.1239
lfingers 7.12502
lthumb -6.80478 5.74674
rfemur -8.29922 -17.5411 21.9827
rtibia 31.2826
rfoot -22.0978 4.77544
rtoes -23.3551
lfemur -12.5915 -0.360291 -14.7202
ltibia 33.403
lfoot -17.0373 -2.50574
ltoes -5.64333
6
root 1.27679 19.1506 1.88957 -178.666 -22.225 -175.903
lowerback -8.31924 2.24266 -2.23377
upperback 7.18342 3.34498 -3.04866
thorax 12.5589 1.42088 -1.47336
lowerneck -3.3683 -6.92467 -2.39967
upperneck 22.8824 -13.053 8.34671
head 8.372 -6.27661 1.97886
rclavicle 1.1291e-013 -1.36764e-013
rhumerus -37.6642 -37.6586 -72.7517
rradius 13.1695
rwrist 51.1555
rhand -0.788421 5.73085
rfingers 7.12502
rthumb 24.835 -22.6762
lclavicle 1.1291e-013 -1.36764e-013
lhumerus -7.73368 11.0524 84.187
lradius 53.4015
lwrist -4.25838
lhand -33.1708 -23.935
lfingers 7.12502
lthumb -6.37915 5.94895
rfemur -8.60416 -17.8373 22.0386
rtibia 31.3404
rfoot -21.8046 5.21339
rtoes -23.2219
lfemur -12.755 -0.307205 -14.59
ltibia 33.0555
lfoot -16.8547 -2.96741
ltoes -4.84153
7
root 1.26928 19.1657 1.90866 -178.49 -22.5432 -175.808
lowerback -8.12382 2.26715 -2.209
upperback 7.23171 3.36334 -3.0848
thorax 12.4985 1.43155 -1.52988
lowerneck -3.37018 -7.06055 -2.58222
upperneck 22.6713 -13.2647 8.71688
head 8.35305 -6.35785 2.11132
rclavicle 1.13307e-013 -6.36111e-015
rhumerus -39.3427 -39.8243 -70.5109
rradius 12.5929
rwrist 53.6988
rhand -0.220601 5.68545
rfingers 7.12502
rthumb 25.3791 -22.6455
lclavicle 1.13307e-013 -6.36111e-015
lhumerus -7.38643 9.16069 83.887
lradius 53.8775
lwrist -4.47133
lhand -32.8633 -23.8757
lfingers 7.12502
lthumb -6.08226 6.01697
rfemur -8.91688 -18.2527 22.0568
rtibia 31.361
rfoot -21.4553 5.71688
rtoes -23.1492
lfemur -12.9514 -0.254842 -14.5013
ltibia 32.7579
lfoot -16.6692 -3.4003
ltoes -4.37063
8
root 1.2614 19.1818 1.92788 -178.294 -22.8254 -175.71
lowerback -7.91672 2.30273 -2.12786
upperback 7.23429 3.39179 -3.13778
thorax 12.383 1.4549 -1.63431
lowerneck -3.32003 -7.18333 -2.73481
upperneck 22.4706 -13.4674 9.07909
head 8.32641 -6.43791 2.2391
rclavicle -3.06128e-014 1.90833e-014
rhumerus -41.1605 -41.7654 -68.2347
rradius 12.1596
rwrist 55.889
rhand 0.297156 5.64492
rfingers 7.12502
rthumb 25.875 -22.6146
lclavicle -3.06128e-014 1.90833e-014
lhumerus -7.13239 7.18894 83.442
lradius 54.2876
lwrist -4.52451
lhand -32.5664 -23.9861
lfingers 7.12502
lthumb -5.79561 5.91463
rfemur -9.24631 -18.7879 22.0904
rtibia 31.3436
rfoot -21.0734 6.22518
rtoes -23.2687
lfemur -13.1976 -0.117521 -14.4125
ltibia 32.5132
lfoot -16.4749 -3.85223
ltoes -4.10718
9
root 1.25481 19.1973 1.9468 -178.097 -23.0874 -175.614
lowerback -7.69268 2.33906 -2.00634
upperback 7.22129 3.41751 -3.21791
thorax 12.2439 1.48213 -1.79194
lowerneck -3.30052 -7.29647 -2.89684
upperneck 22.286 -13.6757 9.49907
head 8.31753 -6.51708 2.38442
rclavicle -1.55052e-014 3.81667e-014
rhumerus -42.8164 -43.205 -66.347
rradius 11.9007
rwrist 57.5082
rhand 0.748681 5.62564
rfingers 7.12502
rthumb 26.3073 -22.5701
lclavicle -1.55052e-014 3.81667e-014
lhumerus -6.97654 5.12615 82.838
lradius 54.7239
lwrist -4.34279
lhand -32.4132 -24.0645
lfingers 7.12502
lthumb -5.64767 5.84023
rfemur -9.57052 -19.349 22.1336
rtibia 31.3126
rfoot -20.7051 6.7643
rtoes -23.4472
lfemur -13.4616 0.0463329 -14.3197
ltibia 32.3118
lfoot -16.3088 -4.29347
ltoes -4.00284
10
root 1.24774 19.2119 1.96665 -177.87 -23.325 -175.54
lowerback -7.49234 2.36586 -1.90573
upperback 7.20098 3.43344 -3.26564
thorax 12.1075 1.5018 -1.90336
lowerneck -3.29462 -7.409 -3.14113
upperneck 22.1075 -13.8778 9.93382
head 8.32052 -6.59753 2.54725
rclavicle 1.35571e-013 -6.52014e-014
rhumerus -44.2329 -44.1365 -64.8024
rradius 11.784
rwrist 58.538
rhand 1.0299 5.60272
rfingers 7.12502
rthumb 26.5765 -22.5525
lclavicle 1.35571e-013 -6.52014e-014
lhumerus -6.90934 3.02851 82.1742
lradius 55.1828
lwrist -3.88728
lhand -32.3934 -24.1442
lfingers 7.12502
lthumb -5.62861 5.76104
rfemur -9.91946 -19.8752 22.1764
rtibia 31.2639
rfoot -20.3295 7.28774
rtoes -23.4488
lfemur -13.7643 0.176615 -14.2559
ltibia 32.1454
lfoot -16.1544 -4.69442
ltoes -3.92916
11
root 1.24155 19.2279 1.98322 -177.549 -23.5435 -175.505
lowerback -7.39375 2.3828 -1.86431
upperback 7.15052 3.45048 -3.30611
thorax 11.9951 1.51757 -1.97008
lowerneck -3.30785 -7.52973 -3.3954
upperneck 21.931 -14.0822 10.3429
head 8.32808 -6.68066 2.70178
rclavicle 4.69132e-014 -7.95139e-015
rhumerus -45.2821 -44.4918 -63.8423
rradius 11.8374
rwrist 58.832
rhand 1.24043 5.50909
rfingers 7.12502
rthumb 26.7779 -22.6155
lclavicle 4.69132e-014 -7.95139e-015
lhumerus -6.95322 0.955944 81.4507
lradius 55.6828
lwrist -3.30489
lhand -32.4262 -24.1035
lfingers 7.12502
lthumb -5.66026 5.80091
rfemur -10.3564 -20.3135 22.2388
rtibia 31.2213
rfoot -20.0455 7.67573
rtoes -23.6844
lfemur -14.1518 0.329235 -14.2296
ltibia 31.9994
lfoot -16.0031 -5.08943
ltoes -3.92495
